<?xml version="1.0" standalone="no"?><!DOCTYPE svg PUBLIC "-//W3C//DTD SVG 1.1//EN" "http://www.w3.org/Graphics/SVG/1.1/DTD/svg11.dtd"><svg t="1719479459934" class="icon" viewBox="0 0 1024 1024" version="1.1" xmlns="http://www.w3.org/2000/svg" p-id="11306" xmlns:xlink="http://www.w3.org/1999/xlink" width="200" height="200"><path d="M696.120195 343.964098c-7.192976-7.292878-19.081366-7.292878-26.274341 0l-91.810342 91.810341c-39.861073-28.971707-95.906341-25.674927-131.871219 10.289951-39.761171 39.861073-39.761171 104.497951 0 144.259122 39.861073 39.761171 104.497951 39.761171 144.259122 0 31.469268-31.469268 37.962927-78.423415 19.68078-116.386341l94.807415-94.807415c7.192976-7.292878 7.192976-19.181268 0-26.374244l-8.791415-8.791414zM550.362537 550.262634c-17.682732 17.682732-46.454634 17.682732-64.137366 0s-17.682732-46.454634 0-64.137366 46.454634-17.682732 64.137366 0c17.682732 17.682732 17.682732 46.454634 0 64.137366z" p-id="11307" fill="#2c2c2c"></path><path d="M861.958244 487.124293c-5.694439-81.420488-39.461463-161.242537-101.600781-223.381854-68.632976-68.632976-158.345366-102.899512-248.257561-102.899512v2.997073c-6.893268 0-12.487805 5.594537-12.487804 12.487805s5.594537 12.487805 12.487804 12.487805c3.996098 0 7.492683-1.998049 9.690537-4.995122 80.821073 2.397659 160.842927 34.266537 222.582634 95.906341 57.843512 57.843512 89.31278 131.771317 95.00722 207.397464h22.577951z" p-id="11308" fill="#2c2c2c"></path><path d="M828.490927 195.509073c-174.729366-174.829268-458.152585-174.829268-632.881951 0-174.829268 174.729366-174.829268 458.152585-0.099903 632.981854 174.829268 174.729366 458.252488 174.729366 632.981854 0 174.729366-174.829268 174.729366-458.252488 0-632.981854z m-43.957073 589.024781C634.08078 935.086829 390.019122 935.086829 239.566049 784.533854s-150.552976-394.514732 0-545.067708 394.514732-150.552976 545.067707 0 150.453073 394.514732-0.099902 545.067708z" p-id="11309" fill="#2c2c2c"></path><path d="M847.772098 512c-6.893268 0-12.487805 5.594537-12.487805 12.487805s5.594537 12.487805 12.487805 12.487805S860.16 531.381073 860.16 524.487805c0-6.993171-5.594537-12.487805-12.387902-12.487805z" p-id="11310" fill="#2c2c2c"></path></svg>