<?xml version="1.0" standalone="no"?><!DOCTYPE svg PUBLIC "-//W3C//DTD SVG 1.1//EN" "http://www.w3.org/Graphics/SVG/1.1/DTD/svg11.dtd"><svg t="1719479102884" class="icon" viewBox="0 0 1024 1024" version="1.1" xmlns="http://www.w3.org/2000/svg" p-id="1743" xmlns:xlink="http://www.w3.org/1999/xlink" width="200" height="200"><path d="M692.0192 265.5232l-49.29536 34.14016a119.86944 119.86944 0 0 1 21.27872 68.34176 119.86944 119.86944 0 0 1-21.2992 68.34176l49.33632 34.11968a179.24096 179.24096 0 0 0 31.9488-102.46144 179.24096 179.24096 0 0 0-31.9488-102.48192z m-296.05888 0a179.24096 179.24096 0 0 0-31.9488 102.48192c0 38.05184 11.79648 73.40032 31.9488 102.46144l49.31584-34.11968a119.86944 119.86944 0 0 1-21.27872-68.34176c0-24.76032 7.49568-48.37376 21.2992-68.34176l-49.33632-34.14016z m382.7712-60.08832l-49.29536 34.11968a223.232 223.232 0 0 1 21.64736 39.75168c11.91936 28.03712 17.92 57.856 17.92 88.6784 0 30.76096-6.00064 60.57984-17.92 88.69888a226.5088 226.5088 0 0 1-21.64736 39.75168l49.31584 34.11968a286.9248 286.9248 0 0 0 50.25792-162.54976 286.9248 286.9248 0 0 0-50.25792-162.57024z m-423.936 31.60064l-49.29536-34.11968a285.61408 285.61408 0 0 0-52.1216 165.0688c0 61.44 19.21024 118.41536 52.0192 165.21216l49.31584-34.14016a230.6048 230.6048 0 0 1-23.53152-42.37312 227.7376 227.7376 0 0 1-17.8176-88.6784c0-30.76096 6.00064-60.66176 17.92-88.6784 6.28736-15.01184 14.15168-29.16352 23.53152-42.2912zM890.71616 128l-49.31584 34.11968a357.94944 357.94944 0 0 1 62.70976 203.0592c0 48.66048-9.46176 95.72352-28.30336 140.16512a361.94304 361.94304 0 0 1-37.02784 66.7648l49.29536 33.9968a417.83296 417.83296 0 0 0 75.93984-240.92672c0-88.02304-27.09504-169.6768-73.3184-237.17888zM183.99232 365.17888c0-48.64 9.48224-95.80544 28.32384-140.14464a355.4304 355.4304 0 0 1 34.4064-62.91456L197.30432 128a418.36544 418.36544 0 0 0-73.3184 237.17888c0 89.64096 28.13952 172.78976 75.96032 240.9472l49.29536-34.11968a357.41696 357.41696 0 0 1-65.24928-206.80704z m675.0208 377.81504a45.01504 45.01504 0 1 0 0 90.03008 45.01504 45.01504 0 0 0 0-90.03008z m-120.0128 0a45.01504 45.01504 0 1 0 0.02048 90.03008 45.01504 45.01504 0 0 0-0.02048-90.03008z m-120.0128 15.01184c-16.5888 0-29.98272 13.39392-29.98272 30.0032 0 16.5888 13.39392 29.98272 30.0032 29.98272 16.5888 0 29.98272-13.39392 29.98272-29.98272 0-16.5888-13.39392-30.0032-29.98272-30.0032z m-434.9952 0h330.01472v60.0064H183.99232v-60.0064z" fill="#2c2c2c" p-id="1744"></path><path d="M1009.00864 653.0048H603.99616c-16.5888 0-30.0032-13.4144-30.0032-30.0032V352.99328c0-16.5888-13.39392-30.0032-30.0032-30.0032-16.5888 0-29.98272 13.4144-29.98272 30.0032V623.0016c0 16.5888-13.4144 30.0032-30.0032 30.0032H78.99136a15.0528 15.0528 0 0 0-14.99136 14.99136v240.00512c0 8.25344 6.7584 14.99136 14.99136 14.99136h929.9968c8.25344 0 15.01184-6.7584 15.01184-14.99136V667.99616a15.0528 15.0528 0 0 0-14.99136-14.99136z m-45.01504 206.2336c0 2.06848-1.67936 3.76832-3.74784 3.76832H127.73376a3.76832 3.76832 0 0 1-3.72736-3.74784v-142.49984c0-2.06848 1.67936-3.76832 3.74784-3.76832h832.512c2.048 0 3.72736 1.69984 3.72736 3.76832v142.49984z" fill="#2c2c2c" p-id="1745"></path></svg>