<?xml version="1.0" standalone="no"?><!DOCTYPE svg PUBLIC "-//W3C//DTD SVG 1.1//EN" "http://www.w3.org/Graphics/SVG/1.1/DTD/svg11.dtd"><svg t="1719479511300" class="icon" viewBox="0 0 1024 1024" version="1.1" xmlns="http://www.w3.org/2000/svg" p-id="13487" xmlns:xlink="http://www.w3.org/1999/xlink" width="200" height="200"><path d="M95.92 728C119.92 720 119.92 712 119.92 688A264 264 0 0 1 87.92 552c0-192 128-352 312-400 24 40 64 72 112 72A112 112 0 0 0 623.92 112 120 120 0 0 0 511.92 0a112 112 0 0 0-112 96A472 472 0 0 0 31.92 552l24 160 24 16h16zM511.92 56c24 0 48 24 48 56S535.92 160 511.92 160 455.92 144 455.92 112 479.92 56 511.92 56z m144 880A320 320 0 0 1 511.92 968 432 432 0 0 1 287.92 904L295.92 872A112 112 0 0 0 183.92 760C127.92 760 79.92 816 79.92 872s48 104 104 104c32 0 64-8 80-32a400 400 0 0 0 248 80C567.92 1024 623.92 1008 671.92 1000 687.92 992 695.92 976 687.92 960 687.92 936 663.92 936 655.92 936zM183.92 920C159.92 920 135.92 904 135.92 872S151.92 816 183.92 816s56 24 56 56L231.92 896C215.92 912 207.92 920 183.92 920zM991.92 552A480 480 0 0 0 711.92 120C687.92 112 679.92 120 671.92 136s0 32 16 40a400 400 0 0 1 176 584L831.92 752C775.92 752 727.92 808 727.92 864S775.92 968 831.92 968C895.92 968 943.92 920 943.92 864L919.92 792A472 472 0 0 0 991.92 552zM831.92 920C807.92 920 783.92 904 783.92 872S799.92 816 831.92 816l32 8c8 8 24 24 24 48C887.92 904 863.92 920 831.92 920zM679.92 504H503.92L519.92 312 351.92 592h168L487.92 800 679.92 504z" p-id="13488" fill="#2c2c2c"></path></svg>