<?xml version="1.0" standalone="no"?><!DOCTYPE svg PUBLIC "-//W3C//DTD SVG 1.1//EN" "http://www.w3.org/Graphics/SVG/1.1/DTD/svg11.dtd"><svg t="1719479065565" class="icon" viewBox="0 0 1024 1024" version="1.1" xmlns="http://www.w3.org/2000/svg" p-id="4281" xmlns:xlink="http://www.w3.org/1999/xlink" width="200" height="200"><path d="M512 64C265 64 64 265 64 512s201 448 448 448 448-201 448-448S759 64 512 64z m0 56c212.2 0 385.4 169.4 391.7 380H795.9L672.3 228.8a28.1 28.1 0 0 0-25.5-16.3h-0.3a28 28 0 0 0-25.4 16.8L503.7 500H345.1a28.2 28.2 0 0 0-26.2 18l-39.2 102.9-46.6-104.3a28 28 0 0 0-25.6-16.6h-87.2c6.3-210.6 179.5-380 391.7-380z m0 784c-201.3 0-367.6-152.5-389.5-348h66.9l66.9 149.5a28 28 0 0 0 25.5 16.5h0.8a28.1 28.1 0 0 0 25.4-18l56.4-148h157.7a28.1 28.1 0 0 0 25.7-16.9l99.7-229.8 105 230.3a27.9 27.9 0 0 0 25.4 16.4h123.6C879.6 751.5 713.3 904 512 904z" p-id="4282" fill="#ffffff"></path></svg>