<svg id="图层_1" data-name="图层 1" xmlns="http://www.w3.org/2000/svg" viewBox="0 0 999 215.61"><defs><style>.cls-1{fill:#fff;}.cls-2{fill:#b73942;}</style></defs><title>fdlogo</title><path class="cls-1" d="M452,171v2c2.3.3,4.6.7,7,1v2l1.8.3a17.17,17.17,0,0,1,6,3.1c.9.6.9.6,1.9,1.3a16.61,16.61,0,0,1,1.4,1.3v2c1,.3,2,.7,3,1a54.67,54.67,0,0,1,4,5l1.8,2.1c1.3,1.9,1.3,1.9,1.3,4.9h2c13.6,28,12.3,58.6,4,88h-2c-.1,1.1-.3,2.1-.4,3.3a51.38,51.38,0,0,1-1.6,7.8h-2a22.28,22.28,0,0,0-.3,2.7c-.7,3.4-1.9,5.4-3.7,8.3a19.37,19.37,0,0,0-1,4h-2c-.1.6-.3,1.2-.4,1.8a51.65,51.65,0,0,1-1.6,5.2h-2c-.1.6-.2,1.1-.3,1.7a22.86,22.86,0,0,1-3.1,6.5c-.4.7-.9,1.4-1.3,2.1a18.26,18.26,0,0,1-1.3,1.6h-2v3h-2c-.3,1-.7,2-1,3h-2a14.81,14.81,0,0,0-.3,1.9c-.2.7-.5,1.4-.7,2.1-1,.3-2,.7-3,1v2h-2l-.3,1.8c-.9,2.8-2.2,3.8-4.5,5.7-.7.6-1.4,1.2-2.2,1.8s-1.4,1.1-2.1,1.7c-.9.8-1.9,1.6-2.9,2.4C436,358,436,358,434,358c-.3,1-.7,2-1,3h-3c-.3,1-.7,2-1,3a36.61,36.61,0,0,1-5,3c-1.3.7-1.3.7-2.6,1.5-22.8,12.4-45.6,19.2-71.4,12.5v-2c-2.3-.3-4.6-.7-7-1v-2l-1.8-.4a28.85,28.85,0,0,1-6.3-2.6v-2c-1-.3-2-.7-3-1v-2c-1.3-.7-2.6-1.3-4-2v-2h-2c-.1-.6-.2-1.3-.3-1.9s-.5-1.4-.7-2.1c-1-.3-2-.7-3-1a61.75,61.75,0,0,1-7-16c3.6,1.2,4,2.1,5.9,5.3a29.24,29.24,0,0,0,8.1,8.7c.3.7.7,1.3,1,2,1,.3,2,.7,3,1v2h3v2c1.7.2,3.3.5,5,.7l5.9.9c10.6,1.5,19.1,1.3,29.4-1.8,1.7-.5,3.4-.9,5.1-1.3,10.3-2.6,24.1-8.9,31.7-16.5,2.3-1.8,4.5-3.7,6.9-5.4,7-5.3,14.2-11.3,19.1-18.6h2v-3h2c.3-1.3.7-2.6,1-4h2a11.63,11.63,0,0,1,.4-1.8,28.85,28.85,0,0,1,2.6-6.3h2v-3h2c.1-.6.3-1.2.4-1.8a51.65,51.65,0,0,1,1.6-5.2h2c.2-1.3.2-1.3.4-2.7a40,40,0,0,1,2.6-8.3h2l.3-3.3a53.1,53.1,0,0,1,3.8-12.9,47.17,47.17,0,0,0,1.9-9.8c.2-1.2.4-2.5.5-3.7,2.7-19.7,2.3-39.6-8.7-57-1.6-2.4-1.6-2.4-3.8-3.3v-3l-1.6-.8a34.53,34.53,0,0,1-5.1-3.2c-12.4-7.9-29-9.1-43.2-6.3-3.4.9-6.7,2-10.1,3.2l-2.7.9a89.34,89.34,0,0,0-17.3,9.1,35.22,35.22,0,0,1-8,4c-1.6,1.5-3,3.1-4.5,4.7S362,206,359,206c-.3.6-.5,1.2-.8,1.8A19.22,19.22,0,0,1,354,213c-1-.3-2-.7-3-1h2c.2-.5.5-1.1.7-1.6A42.89,42.89,0,0,1,360,202h2c.7-1.3,1.3-2.6,2-4h3l1-3h3l1-3h3c.3-.6.5-1.3.8-1.9C377,188,377,188,380,187c.3-.7.7-1.3,1-2,2.9-1.9,6-3.4,9-5,.7-.4,1.4-.7,2.1-1.1A113.65,113.65,0,0,1,406,173c.6-.3,1.3-.5,1.9-.8C421.9,166.9,437.8,166.8,452,171Z" transform="translate(-1 -168.02)"/><path class="cls-1" d="M659,231c5.5-.1,11-.1,16.5-.2,1.9,0,3.7,0,5.6-.1,19.9-.3,19.9-.3,28.9,3.2v2h4v2c.6.1,1.2.1,1.8.2,4.9,1.8,7.3,7.2,9.4,11.6,2.3,6.2,2.4,11.4-.3,17.5-2.2,4.3-5.1,6.8-8.9,9.7l-3,3a22.6,22.6,0,0,1,2.6.1c4.7,1.3,6.7,4,9.4,7.9,2.9,5.2,3.1,11.5,2.9,17.4a45.36,45.36,0,0,0,3.1,14.6c.7.3,1.3.7,2,1-4.3,1.4-8.5,1.2-13,1.2h-7.9c-2.1-.1-2.1-.1-5.1-2.1a55.38,55.38,0,0,1-2-16.2,50.27,50.27,0,0,0-2-12.8c-1.3-.3-2.6-.7-4-1v-2H682a119.43,119.43,0,0,0-1.1,14.5v19.6a145.13,145.13,0,0,1-16.1,1.1h-4.9c-2.6-3.9-2.3-7.9-2.2-12.3V238.8C657.9,233.2,657.9,233.2,659,231Zm21,17c0,3.5,0,6.9-.1,10.4v8.5c0,2.2,0,2.2,1.1,4.2,2.4.1,4.8.1,7.2.1a13.4,13.4,0,0,1,2,.1c4,0,7.2-.3,10.8-2.2a17.69,17.69,0,0,0,4-11,24,24,0,0,0-3-6h-2v-2c-1.5-.3-2.9-.7-4.4-1-.8-.2-1.6-.4-2.5-.6A71.47,71.47,0,0,0,680,248Z" transform="translate(-1 -168.02)"/><path class="cls-1" d="M145,236v2h3v2c.6.1,1.2.1,1.8.2,3.1,1.1,3.8,2.7,5.4,5.5.5.9,1,1.7,1.5,2.6,2.2,4.6,2.4,8.6,2.3,13.6-3.1,1.6-6.5,1.1-9.9,1.1h-2.2a26.87,26.87,0,0,1-8.9-1.1l-1-8h-2v-2c-7.9-2-14.1-2.3-22,0-.3,1.3-.7,2.6-1,4h-2c-2.2,8.3-2.2,17-2.3,25.6,0,1,0,2-.1,3a43.91,43.91,0,0,0,3.3,17.5c.3,1,.7,2,1,3a14.67,14.67,0,0,0,4,1v2c8.1,1.2,14.3,1,22-2a42,42,0,0,0,0-15,21.75,21.75,0,0,0-2.5.1c-1.6,0-1.6,0-3.3.1-1.1,0-2.1,0-3.2.1-3-.2-3-.2-7-2.2v-12a33.54,33.54,0,0,1,13.3-2.2h12.7c10.6,0,10.6,0,12.9,1.2,1.6,7.2,1.2,15,1.3,22.3,0,1.1,0,2.1.1,3.2v5.9c-.6,4.7-2.8,7.2-6.4,10.2-11.5,7.7-25.4,9.5-38.9,8.4a98.89,98.89,0,0,1-11-3v-2h-4v-2h-3a66.84,66.84,0,0,1-7-8c-.7-.9-1.5-1.8-2.3-2.8-5-9.3-5.2-19.5-5.1-29.8v-3.7c0-9.2,1.1-17.5,5.4-25.7h2c.2-.6.5-1.1.7-1.7,4.3-7.6,12.2-11.9,20.3-14.3C123.9,230.8,134.4,233,145,236Z" transform="translate(-1 -168.02)"/><path class="cls-1" d="M535.2,230.7h2.7c11.2,0,19.6,3.4,28.4,10.1,3.4,4.5,5,10.7,5.7,16.3-.3.7-.7,1.3-1,2a122.66,122.66,0,0,1-21,1c-1-3.3-2-6.6-3-10-8.4-1.9-8.4-1.9-17-2a16.08,16.08,0,0,0-4,3h-2v9c.7.3,1.3.7,2,1v2a22.5,22.5,0,0,1,2.4.8c2.8,1,5.6,2,8.4,3.2,5,2,10.1,3.6,15.3,5.1v2c.8.1,1.5.3,2.3.4a38.39,38.39,0,0,1,5.7,1.6v2h3v2l1.8.6c4.2,2.7,5.8,7.3,7.6,11.9,1.5,7.6-.6,13.9-4.3,20.6-5.6,7.2-14.3,9.6-23,11-3.2.3-6.4.3-9.6.3h-2.4a41,41,0,0,1-13.9-2.3v-2a19.27,19.27,0,0,1-2.4-.1,22.36,22.36,0,0,1-14-10.4,48.85,48.85,0,0,1-3.6-14.6c3.1-2.1,3.7-2.2,7.2-2.2h2.4a20.9,20.9,0,0,1,2.5.1H514c2.1,0,4.2.1,6.3.1a26.42,26.42,0,0,1,3,10h2v2h3v2c2.2.1,4.4.1,6.6.2,1.8.1,1.8.1,3.7.1,4.5-.4,8.1-1.5,11.1-5,.9-3.6.2-6.7-.4-10.3a24.13,24.13,0,0,1-2.5-.8,46.4,46.4,0,0,1-7.2-3.2c-4.9-2.5-10-3.8-15.3-5.1v-2l-2.4-.2c-4.7-1.1-8.4-3.3-12.6-5.8v-2c-.6-.2-1.2-.5-1.8-.7-3.2-1.9-4.7-4.6-5.8-8.2-1.5-7.3-.4-13.4,2.6-20.1h2c.7-1.3,1.3-2.6,2-4h2c.3-1,.7-2,1-3a22.85,22.85,0,0,1,9-4c.7-.3,1.3-.7,2-1C526.4,230.5,530.6,230.7,535.2,230.7Z" transform="translate(-1 -168.02)"/><path class="cls-1" d="M34.2,233.9H54.9a83.76,83.76,0,0,1,4.4,11.8,95.09,95.09,0,0,0,3.6,10.2,107.91,107.91,0,0,1,4.2,12.5c.8,2.6,1.8,5,2.8,7.5a155.11,155.11,0,0,1,5,15c1.6,5.4,3.2,10.6,5.2,15.9,1,2.6,2,5.3,2.9,8,.3.9.7,1.8,1,2.8.6,1.8,1.3,3.6,1.9,5.4-.3.7-.7,1.3-1,2h-22c-2.2-6-4.4-11.9-6-18-1,.2-1.9.3-2.9.5a94.49,94.49,0,0,1-14.1.6H30.8a78.3,78.3,0,0,0-4.1,12.4l-.9,3.6c-3.2,1.6-6.7,1.4-10.3,1.6-.8.1-1.5.1-2.3.2A50.94,50.94,0,0,1,1,325c.7-2.6,1.3-5.3,2-8H5c.1-.7.3-1.5.4-2.3.2-1,.4-2,.5-3s.3-1.9.5-3c.4-2.3.9-4.5,1.5-6.8h2l.3-3.3c.6-4.6,2.1-8.6,3.7-12.9,1.3-3.4,2.3-6.9,3.3-10.4.7-2.4,1.5-4.7,2.3-7.1,1.3-3.7,2.4-7.5,3.4-11.3h2c.1-1.5.1-1.5.2-3.1C25.8,248.8,28.3,234.2,34.2,233.9ZM42,263c-.8,3.1-1.7,6.2-2.5,9.3-.2.9-.5,1.7-.7,2.6s-.5,1.7-.7,2.6-.4,1.6-.6,2.3c-.6,2.5-.6,2.5-.5,6.2H35c-.3,1.6-.7,3.3-1,5a46.77,46.77,0,0,0,11.8,1.1H52c1.5-3,.3-4.9-.8-8.1-.4-1.2-.8-2.3-1.1-3.5s-.7-2.2-1.1-3.4c-.3-.9-.5-1.8-.8-2.7-1.3-4.1-2.6-7.8-5.2-11.3A3.4,3.4,0,0,0,42,263Z" transform="translate(-1 -168.02)"/><path class="cls-1" d="M625.1,230.9h13.8c4.9,0,4.9,0,7.1,1.1v15c-4.3,2.1-7.2,2.3-11.8,2.2h-2.3c-2.4,0-4.8,0-7.2-.1h-4.9c-4,0-7.9-.1-11.9-.1a42.69,42.69,0,0,0-1,10.7c.1,5.1.1,5.1-1,7.3h33a44.88,44.88,0,0,1,1.1,9.6v2.3c0,2.1,0,2.1-1,5.1H616.1c-3.6.1-3.6.1-9.1,1.1v20h29.2c3.4,0,6.5,0,9.8,1.1a47.74,47.74,0,0,1,0,16,48,48,0,0,1-10.7,1.1H585.1c-1.2-9.6-1.1-19.1-1.1-28.7V232.3C597.7,231.4,611.4,230.8,625.1,230.9Z" transform="translate(-1 -168.02)"/><path class="cls-1" d="M284,233h61c1.7,11.9,1.7,11.9,0,17H307a56.87,56.87,0,0,0-1.1,12.3V269a21.58,21.58,0,0,0,2.7-.5,114.67,114.67,0,0,1,16.6-.7h9.4c2.3.2,2.3.2,4.3,2.2.1,2.6.2,5,.1,7.6v2.1c0,1.7-.1,3.5-.1,5.2-3.8.2-7.7.3-11.5.5-1.1,0-2.2.1-3.3.1-5.8.2-11.5.4-17.2.4a27.78,27.78,0,0,0-1.1,8.1v12.9c12.7.1,25.3-.2,38-1,2,3.3,2.3,5.8,2.3,9.6v2.9c-.1,2.6-.1,2.6-2.1,5.6a20.2,20.2,0,0,1-5.7.3H326.8c-3.5,0-7.1,0-10.6-.1s-7.2,0-10.8-.1c-7.1,0-14.2-.1-21.2-.1-.7-22.5-1.1-44.9-1.1-67.4V241.5C282.9,235.2,282.9,235.2,284,233Z" transform="translate(-1 -168.02)"/><path class="cls-1" d="M940,230h60v17H962c.3,3,.7,5.9,1,9,.1,3,0,6,0,9h2.7c3.3-.1,6.6-.1,9.9-.1,1.4,0,2.9,0,4.3-.1,2.1,0,4.1-.1,6.2-.1h3.8c3.1.3,3.1.3,5,1.7,1.8,2.7,1.4,5.2,1.3,8.4,0,1.8,0,1.8-.1,3.6,0,.9-.1,1.8-.1,2.7a22.28,22.28,0,0,1-11.1,2.1h-3.5c-1.8,0-1.8,0-3.6-.1-2.4-.1-4.7-.1-7.1-.1-1.6,0-1.6,0-3.2-.1-2.7-.1-2.7-.1-4.5,2.2-.2,2.7-.3,5.3-.3,7.9v2.2c0,3.8.1,5.6,2.3,8.9a69.55,69.55,0,0,0,7.9.3h2.3c2.5,0,5-.1,7.4-.1h5c4.1,0,8.2-.1,12.3-.1v17H952.3a8.69,8.69,0,0,0-4.3.7c-2,.1-2,.1-8-.9Z" transform="translate(-1 -168.02)"/><path class="cls-1" d="M918,235v2l1.8.3c4.3,1.5,6.3,5.8,8.2,9.7,1.4,4.8,2.6,9.2,1,14-15.6,1.8-15.6,1.8-21,0a17.69,17.69,0,0,1-1.1-4.4A16.51,16.51,0,0,0,904,249c-6.3-2.1-13.5-3-20-1v2h-2c-3.8,8.1-4.3,16.7-4.3,25.5v2.6c0,8.5.5,17.3,6.3,23.9,4.8,3.4,9.3,3.6,15,3,2.9-.4,2.9-.4,5-2a25.57,25.57,0,0,0,4-12,29.61,29.61,0,0,1,8.3-1.1h13.6c-.3,8.4-.8,16.2-6.5,22.7-9.2,8.5-21.8,10.7-34,10.5a61.94,61.94,0,0,1-13.5-3.3v-2h-4v-2c-.6-.2-1.1-.5-1.7-.7a21.64,21.64,0,0,1-9.3-10.3c-.7-.3-1.3-.7-2-1-3.1-7-3.7-14.4-4-22,0-.7-.1-1.5-.1-2.3-.6-14.5-.2-27.6,9.5-39.3,1.6-1.5,1.6-1.5,3.6-1.5.3-1,.7-2,1-3a41.73,41.73,0,0,1,6-3l3.6-1.6C891.8,226.1,905.8,228.9,918,235Z" transform="translate(-1 -168.02)"/><path class="cls-1" d="M732,231h22a63.53,63.53,0,0,1,4.1,10.5c.3,1.1.7,2.2,1,3.4.7,2.4,1.3,4.7,1.9,7.1a173.11,173.11,0,0,0,5.3,18.7c1.1,3.4,2,6.8,2.9,10.3,1.5,5.4,3.2,10.7,4.8,16,.1-.6.2-1.1.3-1.7.2-.8.3-1.5.5-2.3s.3-1.5.5-2.3a30.2,30.2,0,0,1,2.1-6.2,147.25,147.25,0,0,0,4.8-16l.9-3.3,2.7-10.2c.6-2.3,1.2-4.6,1.8-7,1.5-5.7,3-11.4,4.5-17h23l1,2h-2c-.1,1.2-.3,2.5-.4,3.8a48.6,48.6,0,0,1-1.6,8.3h-2l-.4,2.2a120.55,120.55,0,0,1-3.6,15.8h-2c-.2,1.7-.2,1.7-.4,3.5a89.51,89.51,0,0,1-2.6,12.5h-2l-.4,3a122,122,0,0,1-2.6,12h-2c-.1,1.5-.1,1.5-.2,3.1-.7,5.4-2.7,10.4-4.6,15.5-1.2,3.1-2.2,6.2-3.3,9.4H762c-3.4-7.9-3.4-7.9-4.2-10.8-.2-.6-.4-1.3-.6-2s-.4-1.3-.6-2c-1.7-5.5-3.6-10.8-5.8-16.2a44.06,44.06,0,0,1-1.8-8c-.9-2.4-1.9-4.7-2.8-7-1.4-3.4-2.5-6.9-3.7-10.4-1.5-4.5-3-8.9-4.6-13.4A114.19,114.19,0,0,1,732,231Z" transform="translate(-1 -168.02)"/><path class="cls-1" d="M203,233h71v17c-2,0-2,0-4.1-.1q-6.6,0-13.2.6l-3.8.3c-.9.1-1.9.1-2.9.2v66.9a14.17,14.17,0,0,1-1.1,6h-21a21.83,21.83,0,0,1-1.1-8v-10c0-4.9,0-9.9.1-14.8.1-13.4,0-26.7-1-40.1-7.9-.3-15.8-.7-24-1C201.9,236.4,201.9,236.4,203,233Z" transform="translate(-1 -168.02)"/><path class="cls-1" d="M824,230c2.2.2,4.4.5,6.7.8a19.15,19.15,0,0,0,6.3-.8c2.7.2,5.3.6,8,1a75.93,75.93,0,0,1,1.1,14.3v69.2c0,5.2,0,5.2-2.3,7.4a29.58,29.58,0,0,1-4.4.2h-2.6a25.28,25.28,0,0,1-2.7-.1h-2.7c-2.2,0-4.4-.1-6.7-.1-2.2-4.4-2.3-8.6-2.2-13.4V236.4C822.9,231.1,822.9,231.1,824,230Z" transform="translate(-1 -168.02)"/><path class="cls-1" d="M378,233v1.8c-.1,5.2.1,10.4.5,15.6.9,13.1.6,26.3.6,39.4V322c-6.6,2.3-6.6,2.3-10.1,2.2h-2.1a17,17,0,0,1-2.2-.1h-2.2c-1.8,0-3.6-.1-5.4-.1-1.2-5.6-1.1-11-1-16.7.1-9.7,0-19.5-.3-29.2,0-1.1,0-2.3-.1-3.4-.1-4.6-.2-9.3-.3-13.9-.1-3.3-.2-6.6-.2-9.9,0-1.5,0-1.5-.1-3a74.2,74.2,0,0,1,1-14.9l9.9-.6c.9-.1,1.9-.1,2.8-.2s1.8-.1,2.7-.1,1.7-.1,2.5-.1C376,232,376,232,378,233Z" transform="translate(-1 -168.02)"/><path class="cls-1" d="M172,233a12.77,12.77,0,0,1,4.5-.3h2.7a26.2,26.2,0,0,1,2.8.1h2.8c6.9.1,6.9.1,8.1,1.2.2,2.1.3,4.3.3,6.4a14.77,14.77,0,0,0,.1,2.1c.1,2.3.1,4.6.2,6.9a19.27,19.27,0,0,0,.1,2.4c.4,14.5.5,28.9.6,43.4V320c-.2,2-.2,2-2.2,5a67.81,67.81,0,0,1-7.8.3H182a57.88,57.88,0,0,1-11-1.2V292.5c.1-18.8.1-18.8-.8-37.6-.3-3.9-.4-7.7-.4-11.6v-4C170,236,170,236,172,233Z" transform="translate(-1 -168.02)"/><path class="cls-1" d="M440,195h2c-1,3-2,5.9-3,9h-2l-.4,3.8c-.3,3.3-.7,4.3-2.6,7.2a64.52,64.52,0,0,0-2.1,6.2c-.4,1.1-.7,2.2-1.1,3.3-.3.8-.5,1.7-.8,2.5h-2c-.1.5-.2,1.1-.3,1.7A127.07,127.07,0,0,1,423,245h-2c-.3,2.6-.7,5.3-1,8h-2l-.4,3.8c-.3,3.3-.7,4.3-2.6,7.2a38.89,38.89,0,0,0-1,4h-2c-.3,2.3-.7,4.6-1,7h-2c.4,10,3.7,18.8,7.3,28.1,1,2.8,2,5.6,2.9,8.5.9,2.7,1.9,5.4,2.9,8.1,1.5,4.1,2.8,8.2,3.9,12.4h-3c-1.4-2-2.7-4-4-6l-2.6-2.6a21.51,21.51,0,0,1-4.4-6.4l-3-1v-3c-.6-.2-1.2-.5-1.8-.7a20,20,0,0,1-6.3-6.3v-2h-2v-2h-2c-3-3.5-3-3.5-3-6h-2v-2h-2c-.3-1.3-.7-2.6-1-4l-1.9-.3c-.7-.2-1.4-.5-2.1-.7-.3-1-.7-2-1-3-.7-.3-1.3-.7-2-1,.3-1.6.7-3.3,1-5h2c.1-.6.2-1.1.3-1.7a22.86,22.86,0,0,1,3.1-6.5c.4-.7.9-1.4,1.3-2.1a18.26,18.26,0,0,1,1.3-1.6h2v-3h2c.1-.5.2-1,.3-1.6,1.7-5.6,5.1-10,8.8-14.4.3-.7.7-1.3,1-2h2v-3h2c.1-.6.2-1.1.3-1.7a22.86,22.86,0,0,1,3.1-6.5,14.79,14.79,0,0,1,1.3-2.1,18.26,18.26,0,0,1,1.3-1.6h2v-3h2c.1-.5.2-1,.3-1.6,1.1-3.5,2.9-6.3,4.8-9.4h2c.3-.7.5-1.5.8-2.2a36.25,36.25,0,0,1,4.5-7.6,112.78,112.78,0,0,0,7.6-11.8A5.45,5.45,0,0,1,440,195Z" transform="translate(-1 -168.02)"/><path class="cls-1" d="M381,185c.3,1,.7,2,1,3l-2.4,1.8c-2.7,1.9-2.7,1.9-3.1,4.3-.5,1.9-.5,1.9-2.9,3.6A28.5,28.5,0,0,1,368,200c-1.6,1.5-3,3.1-4.5,4.7C362,206,362,206,359,206c-.3.6-.5,1.2-.8,1.8A19.22,19.22,0,0,1,354,213c-1-.3-2-.7-3-1h2c.2-.5.5-1.1.7-1.6A42.89,42.89,0,0,1,360,202h2c.7-1.3,1.3-2.6,2-4h3c.3-1,.7-2,1-3h3c.3-1,.7-2,1-3h3c.3-.6.5-1.3.8-1.9C377,188,377,188,380,187,380.3,186.3,380.7,185.7,381,185Z" transform="translate(-1 -168.02)"/><path class="cls-1" d="M381,185c.3,1,.7,2,1,3l-2.4,1.8c-2.7,2.4-2.8,3-3.6,6.3-2.9,2-4.3,2-8,2v-3h3c.3-1,.7-2,1-3h3c.3-.6.5-1.3.8-1.9,1.2-2.1,1.2-2.1,4.2-3.1C380.3,186.3,380.7,185.7,381,185Z" transform="translate(-1 -168.02)"/><path class="cls-1" d="M440,195h2c-1,3-2,5.9-3,9h-2c-.3,2.6-.7,5.3-1,8-.7-1-1.3-2-2-3l-4,2c.5-.7.9-1.5,1.4-2.2.6-1,1.2-2,1.9-3s1.2-1.9,1.9-2.9c1.2-1.9,2.3-3.8,3.4-5.8C439.1,196.4,439.5,195.7,440,195Z" transform="translate(-1 -168.02)"/><path class="cls-1" d="M315,343c3.6,1.2,4.1,2.3,6.1,5.4.5.8,1,1.6,1.6,2.4a34.62,34.62,0,0,1,2.3,4.1c-1.3.3-2.6.7-4,1A50.56,50.56,0,0,1,315,343Z" transform="translate(-1 -168.02)"/><path class="cls-1" d="M877,232v3c-1.1.6-2.1,1.2-3.3,1.8a31.31,31.31,0,0,0-7.8,6.3h-2c.7-1.3,1.3-2.6,2-4h2c.3-1,.7-2,1-3a56,56,0,0,1,6-3C875.7,232.7,876.3,232.3,877,232Z" transform="translate(-1 -168.02)"/><path class="cls-1" d="M358,205c.7.3,1.3.7,2,1-2,2.3-4,4.6-6,7-1-.3-2-.7-3-1h2c.3-.6.5-1.2.8-1.8A17.81,17.81,0,0,1,358,205Z" transform="translate(-1 -168.02)"/><path class="cls-1" d="M421,321c2,1,2,1,2.9,3.3.3.9.5,1.8.8,2.8s.5,1.8.8,2.8c.2.7.4,1.4.6,2.2h-3c-.3-1.5-.7-2.9-1-4.4-.2-.8-.4-1.6-.6-2.5A12.67,12.67,0,0,1,421,321Z" transform="translate(-1 -168.02)"/><path class="cls-1" d="M347,216l2,1-2,1Z" transform="translate(-1 -168.02)"/><path class="cls-2" d="M0,0" transform="translate(-1 -168.02)"/></svg>