<?xml version="1.0" encoding="UTF-8"?>
<svg width="321px" height="69px" viewBox="0 0 321 69" version="1.1" xmlns="http://www.w3.org/2000/svg" xmlns:xlink="http://www.w3.org/1999/xlink">
    <title>编组</title>
    <defs>
        <polygon id="path-1" points="0 0 41.7919 0 41.7919 42.532 0 42.532"></polygon>
        <polygon id="path-3" points="0 68.114 320.58 68.114 320.58 0 0 0"></polygon>
        <linearGradient x1="100%" y1="66.6361683%" x2="3.95423163%" y2="53.5106273%" id="linearGradient-5">
            <stop stop-color="#72AE48" offset="0%"></stop>
            <stop stop-color="#3B93C9" offset="65.1751535%"></stop>
            <stop stop-color="#0E418E" offset="100%"></stop>
        </linearGradient>
    </defs>
    <g id="2-3优化" stroke="none" stroke-width="1" fill="none" fill-rule="evenodd">
        <g id="编组">
            <g>
                <path d="M137.3923,21.0243 L156.3613,21.0243 L156.3613,17.0533 L140.8563,17.0533 L140.8563,14.1793 L156.3613,14.1793 L156.3613,10.2943 L138.3213,10.2943 L138.3213,7.4193 L151.6503,7.4193 C150.1993,6.1683 148.3193,4.6603 146.0103,2.8983 L147.9553,0.7883 C150.4043,2.4503 152.4463,3.9023 154.0793,5.1383 L151.8423,7.4193 L163.0793,7.4193 L161.5153,5.6473 C163.7423,4.0993 165.7523,2.5333 167.5553,0.9573 L170.0493,3.3243 C168.2463,4.6763 166.2963,6.0403 164.1973,7.4193 L177.9513,7.4193 L177.9513,10.2943 L159.8253,10.2943 L159.8253,14.1793 L175.6683,14.1793 L175.6683,17.0533 L159.8253,17.0533 L159.8253,21.0243 L178.7113,21.0243 L178.7113,23.8983 L137.3923,23.8983 L137.3923,21.0243 Z M179.0503,39.3193 C177.9773,40.7553 177.1623,41.9233 176.5973,42.8243 C167.3463,41.0063 161.1843,37.3483 158.1143,31.8413 C155.3673,37.6583 149.0383,41.4293 139.1233,43.1613 C138.5613,42.2053 137.8713,41.1353 137.0563,39.9503 C146.5183,38.6433 152.4663,35.6863 154.9043,31.0783 L137.9823,31.0783 L137.9823,28.2083 L156.0643,28.2083 C156.3473,27.2233 156.5723,26.0943 156.7413,24.8273 L160.2053,24.8273 C159.9793,26.0663 159.7263,27.1923 159.4463,28.2083 L178.2873,28.2083 L178.2873,31.0783 L160.9243,31.0783 C164.2193,35.8263 170.2603,38.5733 179.0503,39.3193 L179.0503,39.3193 Z" id="Fill-5" fill="#090304"></path>
                <path d="M146.5315,2.8528 C148.6145,4.4478 150.3625,5.8498 151.7345,7.0248 L153.5455,5.1788 C152.0155,4.0308 150.1555,2.7118 148.0095,1.2508 L146.5315,2.8528 Z M162.0425,5.7098 L163.5525,7.4208 L164.0045,7.1238 C165.9715,5.8288 167.8205,4.5398 169.5035,3.2918 L167.5445,1.4348 C165.8805,2.8748 164.0325,4.3108 162.0425,5.7098 L162.0425,5.7098 Z M137.7455,23.5448 L178.3585,23.5448 L178.3585,21.3768 L159.4725,21.3768 L159.4725,16.6998 L175.3145,16.6998 L175.3145,14.5328 L159.4725,14.5328 L159.4725,9.9398 L177.5965,9.9398 L177.5965,7.7728 L138.6745,7.7728 L138.6745,9.9398 L156.7145,9.9398 L156.7145,14.5328 L141.2105,14.5328 L141.2105,16.6998 L156.7145,16.6998 L156.7145,21.3768 L137.7455,21.3768 L137.7455,23.5448 Z M179.0645,24.2508 L137.0395,24.2508 L137.0395,20.6708 L156.0085,20.6708 L156.0085,17.4068 L140.5035,17.4068 L140.5035,13.8268 L156.0085,13.8268 L156.0085,10.6468 L137.9685,10.6468 L137.9685,7.0658 L150.6915,7.0658 C149.3555,5.9458 147.7135,4.6418 145.7965,3.1798 L145.4875,2.9438 L147.9015,0.3238 L148.1535,0.4948 C150.5715,2.1368 152.6365,3.6038 154.2915,4.8578 L154.6135,5.0998 L152.6835,7.0658 L162.2965,7.0658 L160.9885,5.5848 L161.3145,5.3578 C163.5055,3.8338 165.5275,2.2638 167.3245,0.6908 L167.5645,0.4798 L170.5965,3.3568 L170.2625,3.6078 C168.7565,4.7348 167.1145,5.8948 165.3675,7.0658 L178.3035,7.0658 L178.3035,10.6468 L160.1785,10.6468 L160.1785,13.8268 L176.0215,13.8268 L176.0215,17.4068 L160.1785,17.4068 L160.1785,20.6708 L179.0645,20.6708 L179.0645,24.2508 Z M137.6675,40.2198 C138.2935,41.1418 138.8415,41.9968 139.3035,42.7728 C148.9155,41.0478 155.1365,37.3198 157.7965,31.6918 L158.0885,31.0688 L158.4235,31.6688 C161.3985,37.0058 167.4565,40.6258 176.4295,42.4308 C176.9265,41.6548 177.5855,40.7088 178.3915,39.6128 C169.8705,38.7828 163.8965,35.9818 160.6345,31.2798 L160.2495,30.7258 L177.9335,30.7258 L177.9335,28.5608 L158.9825,28.5608 L159.1055,28.1138 C159.3495,27.2308 159.5755,26.2458 159.7805,25.1808 L157.0485,25.1808 C156.8825,26.3428 156.6665,27.3928 156.4045,28.3058 L156.3315,28.5608 L138.3365,28.5608 L138.3365,30.7258 L155.4905,30.7258 L155.2165,31.2448 C152.7845,35.8418 146.8815,38.8598 137.6675,40.2198 L137.6675,40.2198 Z M138.9435,43.5508 L138.8195,43.3408 C138.2665,42.3998 137.5745,41.3268 136.7655,40.1508 L136.4405,39.6798 L137.0075,39.5998 C145.9425,38.3658 151.7545,35.6178 154.2975,31.4318 L137.6305,31.4318 L137.6305,27.8548 L155.7975,27.8548 C156.0395,26.9538 156.2385,25.9218 156.3905,24.7808 L156.4315,24.4748 L160.6285,24.4748 L160.5525,24.8908 C160.3585,25.9578 160.1405,26.9528 159.9075,27.8548 L178.6395,27.8548 L178.6395,31.4318 L161.6195,31.4318 C164.9235,35.7298 170.7955,38.2638 179.0815,38.9648 L179.7135,39.0198 L179.3355,39.5308 C178.2865,40.9318 177.4675,42.1018 176.8955,43.0128 L176.7695,43.2198 L176.5285,43.1728 C167.5335,41.4038 161.3515,37.8418 158.1395,32.5838 C155.2065,38.1478 148.8355,41.8238 139.1845,43.5098 L138.9435,43.5508 Z" id="Fill-7" fill="#090304"></path>
                <polygon id="Fill-9" fill="#090304" points="184.5569 36.8251 191.4439 36.8251 191.4439 14.1791 195.0769 14.1791 195.0769 36.8251 205.8069 36.8251 205.8069 8.1401 186.4989 8.1401 186.4989 4.8431 224.9449 4.8431 224.9449 8.1401 209.4419 8.1401 209.4419 19.2081 223.5109 19.2081 223.5109 22.4601 209.4419 22.4601 209.4419 36.8251 226.6359 36.8251 226.6359 40.1221 184.5569 40.1221"></polygon>
                <path d="M184.9089,39.7678 L226.2839,39.7678 L226.2839,37.1798 L209.0889,37.1798 L209.0889,22.1068 L223.1579,22.1068 L223.1579,19.5618 L209.0889,19.5618 L209.0889,7.7868 L224.5929,7.7868 L224.5929,5.1958 L186.8519,5.1958 L186.8519,7.7868 L206.1609,7.7868 L206.1609,37.1798 L194.7239,37.1798 L194.7239,14.5328 L191.7959,14.5328 L191.7959,37.1798 L184.9089,37.1798 L184.9089,39.7678 Z M226.9909,40.4738 L184.2029,40.4738 L184.2029,36.4728 L191.0899,36.4728 L191.0899,13.8268 L195.4299,13.8268 L195.4299,36.4728 L205.4549,36.4728 L205.4549,8.4928 L186.1449,8.4928 L186.1449,4.4888 L225.2989,4.4888 L225.2989,8.4928 L209.7949,8.4928 L209.7949,18.8548 L223.8639,18.8548 L223.8639,22.8138 L209.7949,22.8138 L209.7949,36.4728 L226.9909,36.4728 L226.9909,40.4738 Z" id="Fill-11" fill="#090304"></path>
                <path d="M232.3993,37.1628 L252.0023,37.1628 L252.0023,26.3898 L237.0453,26.3898 L237.0453,23.1378 L252.0023,23.1378 L252.0023,13.3788 L240.8483,13.3788 C238.9753,16.7578 236.8223,19.8128 234.3843,22.5468 C233.7923,21.6168 233.0333,20.6298 232.1033,19.5898 C236.0753,15.1398 239.2133,9.7028 241.5243,3.2798 L244.9893,4.2118 C244.2423,6.2668 243.4193,8.2388 242.5183,10.1248 L252.0023,10.1248 L252.0023,1.1708 L255.6343,1.1708 L255.6343,10.1248 L271.7753,10.1248 L271.7753,13.3788 L255.6343,13.3788 L255.6343,23.1378 L270.5903,23.1378 L270.5903,26.3898 L255.6343,26.3898 L255.6343,37.1628 L274.0533,37.1628 L274.0533,40.3308 L232.3993,40.3308 L232.3993,37.1628 Z" id="Fill-13" fill="#090304"></path>
                <path d="M232.752,39.9775 L273.7,39.9775 L273.7,37.5165 L255.281,37.5165 L255.281,26.0375 L270.237,26.0375 L270.237,23.4905 L255.281,23.4905 L255.281,13.0245 L271.42,13.0245 L271.42,10.4785 L255.281,10.4785 L255.281,1.5225 L252.357,1.5225 L252.357,10.4785 L241.957,10.4785 L242.2,9.9735 C243.03,8.2325 243.814,6.3765 244.526,4.4535 L241.744,3.7055 C239.479,9.9045 236.397,15.2445 232.575,19.5905 C233.287,20.4035 233.908,21.1995 234.427,21.9645 C236.709,19.3535 238.764,16.4075 240.539,13.2075 L240.641,13.0245 L252.357,13.0245 L252.357,23.4905 L237.399,23.4905 L237.399,26.0375 L252.357,26.0375 L252.357,37.5165 L232.752,37.5165 L232.752,39.9775 Z M274.406,40.6835 L232.046,40.6835 L232.046,36.8095 L251.65,36.8095 L251.65,26.7445 L236.692,26.7445 L236.692,22.7845 L251.65,22.7845 L251.65,13.7315 L241.055,13.7315 C239.2,17.0495 237.045,20.0925 234.65,22.7805 L234.339,23.1295 L234.087,22.7365 C233.497,21.8105 232.741,20.8325 231.841,19.8265 L231.629,19.5905 L231.841,19.3565 C235.76,14.9645 238.905,9.5165 241.193,3.1605 L241.3,2.8555 L245.453,3.9705 L245.32,4.3335 C244.633,6.2215 243.88,8.0485 243.074,9.7715 L251.65,9.7715 L251.65,0.8165 L255.988,0.8165 L255.988,9.7715 L272.127,9.7715 L272.127,13.7315 L255.988,13.7315 L255.988,22.7845 L270.943,22.7845 L270.943,26.7445 L255.988,26.7445 L255.988,36.8095 L274.406,36.8095 L274.406,40.6835 Z" id="Fill-15" fill="#090304"></path>
                <path d="M293.5482,17.9003 C296.3372,13.6183 298.8852,8.0403 301.1952,1.1703 L304.2782,2.0973 C303.4752,4.3363 302.6742,6.4193 301.8722,8.3503 L320.2072,8.3503 C319.6442,19.7003 319.1772,28.3893 318.8112,34.4173 C318.5012,39.1213 316.2482,41.4753 312.0512,41.4753 C310.4752,41.4753 308.6152,41.4293 306.4762,41.3483 C306.3342,40.3043 306.1372,39.1063 305.8832,37.7543 C308.3342,38.0363 310.2782,38.1783 311.7152,38.1783 C313.9962,38.1783 315.2492,36.8813 315.4732,34.2913 C315.9802,28.3473 316.4312,20.7023 316.8272,11.3503 L313.5942,11.3503 C312.8612,18.5333 311.6712,24.1943 310.0252,28.3353 C307.7722,33.6833 303.9392,38.2773 298.5332,42.1073 C297.9122,41.2333 297.1952,40.3733 296.3772,39.5303 C301.6462,35.8093 305.2932,31.5423 307.3202,26.7283 C308.9552,22.7733 310.0022,17.6453 310.4682,11.3503 L306.7082,11.3503 C305.9462,16.7303 304.8132,21.0533 303.3072,24.3183 C301.4482,28.0113 298.8992,31.3183 295.6602,34.2483 C294.9562,33.3463 294.2222,32.5163 293.4632,31.7563 C296.6732,28.9683 299.0552,26.0393 300.6022,22.9693 C302.1092,19.8413 303.1112,15.9693 303.6032,11.3503 L300.5602,11.3503 C299.1252,14.5473 297.6872,17.2663 296.2522,19.5033 C295.5472,19.0253 294.6462,18.4883 293.5482,17.9003 L293.5482,17.9003 Z M279.7752,26.5593 C282.3652,25.7013 285.0542,24.7833 287.8462,23.8133 L287.8462,13.8413 L284.0212,13.8413 C283.4572,16.5203 282.7742,18.9703 281.9722,21.1933 C281.0702,20.5473 280.1542,19.9263 279.2252,19.3343 C280.8012,15.4763 281.8022,10.8423 282.2262,5.4343 L285.2672,5.9413 C285.0692,7.7013 284.8312,9.3923 284.5472,11.0133 L287.8462,11.0133 L287.8462,1.5063 L291.0132,1.5063 L291.0132,11.0133 L295.1942,11.0133 L295.1942,13.8413 L291.0132,13.8413 L291.0132,22.6923 C292.3932,22.1873 293.7992,21.6723 295.2382,21.1513 C295.3792,22.3913 295.5352,23.4613 295.7012,24.3633 C294.3082,24.8693 292.7442,25.4473 291.0132,26.0943 L291.0132,42.9093 L287.8462,42.9093 L287.8462,27.2983 C285.5912,28.1433 283.1132,29.0953 280.4102,30.1513 L279.7752,26.5593 Z" id="Fill-17" fill="#090304"></path>
                <g transform="translate(278.788100, 0.732200)">
                    <mask id="mask-2" fill="white">
                        <use xlink:href="#path-1"></use>
                    </mask>
                    <g id="Clip-20"></g>
                    <path d="M18.128,38.848 C18.746,39.51 19.314,40.192 19.825,40.884 C25.004,37.148 28.732,32.637 30.912,27.466 C32.537,23.381 33.729,17.698 34.455,10.582 L34.485,10.265 L38.409,10.265 L38.392,10.633 C37.995,19.962 37.539,27.687 37.04,33.59 C36.797,36.345 35.376,37.799 32.926,37.799 C31.59,37.799 29.778,37.673 27.529,37.427 C27.717,38.448 27.874,39.403 27.998,40.275 C30.139,40.352 31.864,40.39 33.263,40.39 C37.277,40.39 39.372,38.189 39.67,33.662 C40.037,27.652 40.5,19.009 41.047,7.972 L22.554,7.972 L22.758,7.483 C23.503,5.688 24.267,3.709 25.032,1.595 L22.634,0.873 C20.404,7.435 17.927,12.869 15.264,17.039 C16.067,17.477 16.768,17.893 17.358,18.278 C18.71,16.134 20.087,13.51 21.45,10.473 L21.544,10.265 L25.206,10.265 L25.164,10.655 C24.673,15.288 23.652,19.236 22.132,22.39 C20.617,25.398 18.283,28.306 15.189,31.043 C15.785,31.656 16.362,32.311 16.914,33 C19.974,30.174 22.427,26.956 24.204,23.428 C25.683,20.219 26.817,15.889 27.57,10.568 L27.614,10.265 L32.062,10.265 L32.035,10.644 C31.566,16.953 30.498,22.163 28.859,26.131 C26.858,30.883 23.249,35.16 18.128,38.848 L18.128,38.848 Z M9.411,41.825 L11.873,41.825 L11.873,25.116 L12.102,25.031 C13.719,24.427 15.189,23.883 16.514,23.4 C16.384,22.672 16.263,21.834 16.152,20.903 C14.977,21.329 13.826,21.75 12.692,22.165 L11.873,22.465 L11.873,12.756 L16.053,12.756 L16.053,10.634 L11.873,10.634 L11.873,1.127 L9.411,1.127 L9.411,10.634 L5.342,10.634 L5.413,10.221 C5.675,8.702 5.904,7.116 6.089,5.502 L3.758,5.113 C3.325,10.249 2.356,14.737 0.874,18.462 C1.589,18.923 2.304,19.406 3.007,19.903 C3.733,17.826 4.365,15.518 4.889,13.036 L4.947,12.756 L9.411,12.756 L9.411,23.333 L9.174,23.415 C6.274,24.423 3.722,25.292 1.387,26.066 L1.895,28.934 C4.445,27.939 6.79,27.038 8.934,26.234 L9.411,26.056 L9.411,41.825 Z M12.579,42.532 L8.705,42.532 L8.705,27.076 C6.58,27.874 4.263,28.767 1.752,29.748 L1.349,29.905 L0.587,25.588 L0.877,25.492 C3.222,24.715 5.786,23.843 8.705,22.83 L8.705,13.463 L5.521,13.463 C4.964,16.045 4.29,18.439 3.515,20.582 L3.358,21.02 L2.977,20.749 C2.08,20.106 1.161,19.483 0.248,18.9 L0,18.741 L0.113,18.468 C1.663,14.666 2.665,10.025 3.084,4.674 L3.115,4.291 L6.867,4.914 L6.829,5.247 C6.652,6.845 6.434,8.417 6.18,9.928 L8.705,9.928 L8.705,0.421 L12.579,0.421 L12.579,9.928 L16.759,9.928 L16.759,13.047 C18.65,9.47 20.429,5.21 22.074,0.324 L22.181,0 L25.948,1.134 L25.821,1.483 C25.081,3.549 24.339,5.491 23.611,7.265 L41.792,7.265 L41.772,7.636 C41.215,18.853 40.746,27.625 40.376,33.707 C40.053,38.611 37.661,41.097 33.263,41.097 C31.789,41.097 29.963,41.055 27.675,40.97 L27.38,40.959 L27.338,40.664 C27.192,39.596 26.994,38.393 26.748,37.088 L26.66,36.616 L27.137,36.671 C29.576,36.95 31.524,37.093 32.926,37.093 C35.009,37.093 36.127,35.929 36.334,33.529 C36.828,27.714 37.277,20.126 37.669,10.971 L35.122,10.971 C34.388,18.004 33.194,23.643 31.566,27.734 C29.292,33.128 25.385,37.813 19.949,41.662 L19.662,41.867 L19.458,41.58 C18.843,40.713 18.128,39.861 17.336,39.044 L17.049,38.749 L17.386,38.509 C22.573,34.844 26.215,30.588 28.208,25.859 C29.783,22.043 30.823,17.035 31.301,10.971 L28.227,10.971 C27.463,16.222 26.326,20.514 24.839,23.734 C22.965,27.458 20.366,30.834 17.11,33.778 L16.828,34.032 L16.594,33.734 C15.91,32.856 15.181,32.028 14.425,31.274 L14.16,31.006 L14.444,30.758 C17.609,28.008 19.982,25.089 21.5,22.078 C22.937,19.09 23.92,15.354 24.419,10.971 L22.002,10.971 C20.587,14.095 19.16,16.783 17.761,18.962 L17.565,19.267 L17.264,19.064 C16.561,18.585 15.664,18.053 14.593,17.48 L14.254,17.298 L14.464,16.975 C15.167,15.894 15.86,14.722 16.539,13.463 L12.579,13.463 L12.579,21.455 C13.807,21.005 15.054,20.548 16.329,20.086 L16.751,19.935 L16.801,20.379 C16.942,21.605 17.096,22.677 17.262,23.566 L17.317,23.86 L17.035,23.963 C15.703,24.446 14.218,24.995 12.579,25.608 L12.579,42.532 Z" id="Fill-19" fill="#090304" mask="url(#mask-2)"></path>
                </g>
                <polygon id="Fill-21" fill="#0A0305" points="136.538 65.2896 136.538 51.6936 138.508 51.6936 143.216 63.5176 147.905 51.6936 149.876 51.6936 149.876 65.2896 148.595 65.2896 148.595 53.2806 143.813 65.2896 142.608 65.2896 137.826 53.2806 137.826 65.2896"></polygon>
                <polygon id="Fill-23" fill="#0A0305" points="154.6439 57.7923 160.3589 57.7923 160.3589 59.1353 154.6439 59.1353 154.6439 63.9733 160.3589 63.9733 160.3589 65.2893 153.2999 65.2893 153.2999 51.6943 160.3589 51.6943 160.3589 53.0293 154.6439 53.0293"></polygon>
                <mask id="mask-4" fill="white">
                    <use xlink:href="#path-3"></use>
                </mask>
                <g id="Clip-26"></g>
                <polygon id="Fill-25" fill="#0A0305" mask="url(#mask-4)" points="163.915 65.29 165.249 65.29 165.249 51.694 163.915 51.694"></polygon>
                <polygon id="Fill-27" fill="#0A0305" mask="url(#mask-4)" points="174.2695 53.0294 168.3005 53.0294 168.3005 51.6934 175.8205 51.6934 175.8205 52.9704 169.4495 63.9734 175.9505 63.9734 175.9505 65.2894 167.9185 65.2894 167.9185 64.0124"></polygon>
                <polygon id="Fill-28" fill="#0A0305" mask="url(#mask-4)" points="179.9527 65.2896 178.6097 65.2896 178.6097 51.6936 179.9527 51.6936 179.9527 57.7926 186.4167 57.7926 186.4167 51.6936 187.7517 51.6936 187.7517 65.2896 186.4167 65.2896 186.4167 59.0896 179.9527 59.0896"></polygon>
                <polygon id="Fill-29" fill="#0A0305" mask="url(#mask-4)" points="192.6699 57.7923 198.3859 57.7923 198.3859 59.1353 192.6699 59.1353 192.6699 63.9733 198.3859 63.9733 198.3859 65.2893 191.3259 65.2893 191.3259 51.6943 198.3859 51.6943 198.3859 53.0293 192.6699 53.0293"></polygon>
                <polygon id="Fill-30" fill="#0A0305" mask="url(#mask-4)" points="210.9917 63.666 210.8327 51.694 212.1587 51.694 212.1587 65.29 210.5527 65.29 203.0897 53.301 203.2407 65.29 201.9227 65.29 201.9227 51.694 203.5297 51.694"></polygon>
                <path d="M220.4959,58.7711 L228.9479,58.7711 C228.8359,60.7541 228.1239,62.3801 226.8079,63.6521 C225.4949,64.9241 223.8819,65.5611 221.9699,65.5611 C220.0089,65.5611 218.3659,64.8771 217.0439,63.5081 C215.7199,62.1371 215.0589,60.4391 215.0589,58.4091 C215.0589,57.4541 215.2389,56.5521 215.6009,55.6981 C215.9619,54.8461 216.4899,54.0781 217.1879,53.3911 C217.8619,52.7271 218.6049,52.2301 219.4199,51.9061 C220.2369,51.5821 221.1419,51.4221 222.1389,51.4221 C223.4579,51.4221 224.6429,51.7411 225.6919,52.3791 C226.7419,53.0181 227.5849,53.9281 228.2179,55.1091 L226.5769,55.1091 C225.9339,54.2921 225.2479,53.6931 224.5149,53.3021 C223.7829,52.9161 222.9659,52.7191 222.0639,52.7191 C220.5009,52.7191 219.1799,53.2781 218.0979,54.3951 C217.0179,55.5121 216.4779,56.8581 216.4779,58.4261 C216.4779,60.0961 217.0169,61.4881 218.0959,62.6011 C219.1719,63.7151 220.5009,64.2731 222.0829,64.2731 C223.3279,64.2731 224.4449,63.8751 225.4319,63.0771 C226.4169,62.2811 227.0619,61.2461 227.3609,59.9761 L220.4959,59.9761 L220.4959,58.7711 Z" id="Fill-31" fill="#0A0305" mask="url(#mask-4)"></path>
                <path d="M239.5514,58.8649 L239.5514,63.9919 L241.4294,63.9919 C242.5304,63.9919 243.3444,63.7839 243.8704,63.3679 C244.3974,62.9499 244.6584,62.3079 244.6584,61.4459 C244.6584,60.5769 244.3934,59.9299 243.8574,59.5039 C243.3204,59.0779 242.5114,58.8649 241.4294,58.8649 L239.5514,58.8649 Z M239.5514,52.9909 L239.5514,57.5679 L240.3534,57.5679 C241.6754,57.5679 242.5984,57.3859 243.1224,57.0199 C243.6504,56.6549 243.9144,56.0609 243.9144,55.2309 C243.9144,54.4539 243.6564,53.8859 243.1474,53.5269 C242.6364,53.1699 241.8214,52.9909 240.7004,52.9909 L239.5514,52.9909 Z M238.2704,51.6939 L240.8034,51.6939 C242.3404,51.6939 243.4714,51.9849 244.1924,52.5649 C244.9144,53.1479 245.2764,54.0559 245.2764,55.2889 C245.2764,55.9109 245.1544,56.4439 244.9124,56.8849 C244.6694,57.3279 244.3054,57.6899 243.8194,57.9689 C244.5544,58.2759 245.1054,58.7009 245.4724,59.2519 C245.8394,59.8059 246.0244,60.4769 246.0244,61.2759 C246.0244,62.6569 245.6424,63.6719 244.8794,64.3189 C244.1174,64.9689 242.9164,65.2899 241.2784,65.2899 L238.2704,65.2899 L238.2704,51.6939 Z" id="Fill-32" fill="#0A0305" mask="url(#mask-4)"></path>
                <polygon id="Fill-33" fill="#0A0305" mask="url(#mask-4)" points="249.019 65.29 250.352 65.29 250.352 51.694 249.019 51.694"></polygon>
                <path d="M254.6261,58.4258 C254.6261,60.0828 255.1641,61.4708 256.2431,62.5928 C257.3201,63.7128 258.6491,64.2728 260.2301,64.2728 C261.7741,64.2728 263.0781,63.7078 264.1431,62.5748 C265.2081,61.4388 265.7411,60.0458 265.7411,58.3888 C265.7411,56.8428 265.1931,55.5128 264.0961,54.3958 C263.0021,53.2778 261.6811,52.7198 260.1371,52.7198 C259.5081,52.7198 258.9031,52.8278 258.3201,53.0428 C257.7381,53.2568 257.2001,53.5738 256.7101,53.9918 C256.0621,54.5388 255.5541,55.2068 255.1831,55.9978 C254.8111,56.7878 254.6261,57.5978 254.6261,58.4258 M253.2241,58.4088 C253.2241,57.4628 253.4071,56.5588 253.7711,55.6978 C254.1351,54.8388 254.6631,54.0688 255.3541,53.3908 C256.0221,52.7388 256.7551,52.2458 257.5541,51.9168 C258.3551,51.5858 259.2221,51.4218 260.1551,51.4218 C261.1081,51.4218 261.9911,51.5888 262.8051,51.9208 C263.6171,52.2548 264.3601,52.7528 265.0311,53.4118 C265.7211,54.0898 266.2411,54.8498 266.5921,55.6898 C266.9391,56.5308 267.1161,57.4378 267.1161,58.4088 C267.1161,59.3738 266.9651,60.2588 266.6661,61.0638 C266.3671,61.8708 265.9171,62.6078 265.3211,63.2658 C264.6291,64.0248 263.8481,64.5948 262.9761,64.9818 C262.1041,65.3698 261.1601,65.5608 260.1371,65.5608 C258.1831,65.5608 256.5431,64.8768 255.2161,63.5018 C253.8881,62.1318 253.2241,60.4328 253.2241,58.4088" id="Fill-34" fill="#0A0305" mask="url(#mask-4)"></path>
                <polygon id="Fill-35" fill="#0A0305" mask="url(#mask-4)" points="269.623 60.779 274.003 60.779 274.003 59.538 269.623 59.538"></polygon>
                <polygon id="Fill-36" fill="#0A0305" mask="url(#mask-4)" points="280.0971 65.2896 278.7631 65.2896 278.7631 53.0296 276.0441 53.0296 276.0441 51.6936 282.8151 51.6936 282.8151 53.0296 280.0971 53.0296"></polygon>
                <polygon id="Fill-37" fill="#0A0305" mask="url(#mask-4)" points="286.5777 57.7923 292.2937 57.7923 292.2937 59.1353 286.5777 59.1353 286.5777 63.9733 292.2937 63.9733 292.2937 65.2893 285.2317 65.2893 285.2317 51.6943 292.2937 51.6943 292.2937 53.0293 286.5777 53.0293"></polygon>
                <path d="M306.7084,55.214 C306.0994,54.367 305.4184,53.745 304.6644,53.344 C303.9104,52.946 303.0514,52.748 302.0864,52.748 C300.5734,52.748 299.2794,53.309 298.2054,54.43 C297.1334,55.549 296.5944,56.882 296.5944,58.426 C296.5944,60.071 297.1274,61.456 298.1984,62.582 C299.2644,63.71 300.5604,64.273 302.0864,64.273 C303.0254,64.273 303.8764,64.077 304.6354,63.686 C305.3944,63.293 306.0554,62.709 306.6144,61.929 L308.2034,61.929 C307.5804,63.086 306.7464,63.981 305.7004,64.614 C304.6534,65.245 303.4794,65.561 302.1794,65.561 C300.1804,65.561 298.5144,64.881 297.1784,63.518 C295.8424,62.153 295.1744,60.449 295.1744,58.409 C295.1744,57.455 295.3554,56.552 295.7164,55.698 C296.0764,54.846 296.6044,54.078 297.3044,53.391 C297.9514,52.745 298.6794,52.255 299.4854,51.921 C300.2914,51.589 301.1654,51.422 302.1054,51.422 C303.4564,51.422 304.6714,51.751 305.7514,52.412 C306.8324,53.071 307.6854,54.006 308.3164,55.214 L306.7084,55.214 Z" id="Fill-38" fill="#0A0305" mask="url(#mask-4)"></path>
                <polygon id="Fill-39" fill="#0A0305" mask="url(#mask-4)" points="312.6264 65.2896 311.2824 65.2896 311.2824 51.6936 312.6264 51.6936 312.6264 57.7926 319.0894 57.7926 319.0894 51.6936 320.4254 51.6936 320.4254 65.2896 319.0894 65.2896 319.0894 59.0896 312.6264 59.0896"></polygon>
            </g>
            <path d="M117.986,0 L117.986,16.837 L118.085,16.701 L118.085,55.908 L118.081589,56.2230792 C117.938607,62.819416 113.318797,68.114 107.636,68.114 L80.113,68.114 L117.909,16.941 L107.103,16.941 L106.903687,16.9453835 C105.208797,17.0185814 102.691231,18.0119615 101.297,20.186 L65.988,68.066 L40.348,68.066 L85.097,7.625 L85.3298934,7.3190958 C88.6998559,2.96642252 93.4295227,0 98.397,0 L117.986,0 Z M77.636,0 L77.636,16.941 L66.749,16.941 L66.5495888,16.9453835 C64.8540281,17.0185814 62.3393462,18.0119615 60.948,20.186 L25.637,68.066 L0,68.066 L44.743,7.625 L44.9814432,7.31203481 C48.3523359,2.96321471 53.0870465,0 58.045,0 L77.636,0 Z" id="形状结合" fill="url(#linearGradient-5)"></path>
        </g>
    </g>
</svg>